<svg width="175" height="73" viewBox="0 0 175 73" fill="none" xmlns="http://www.w3.org/2000/svg">
<path d="M4.15656 57C1.91656 57 0.796563 55.88 0.796563 53.64V4.04C0.796563 1.8 1.91656 0.679996 4.15656 0.679996C6.39656 0.679996 7.51656 1.8 7.51656 4.04V20.72C8.90323 19.3067 10.6366 18.24 12.7166 17.52C14.7966 16.8 17.2232 16.44 19.9966 16.44H23.0366C28.3699 16.44 32.3166 17.72 34.8766 20.28C37.4366 22.84 38.7166 26.7867 38.7166 32.12V41.32C38.7166 46.6267 37.4366 50.5733 34.8766 53.16C32.3166 55.72 28.3699 57 23.0366 57H19.9966C17.2232 57 14.7966 56.64 12.7166 55.92C10.6366 55.2 8.90323 54.1467 7.51656 52.76V53.64C7.51656 55.88 6.39656 57 4.15656 57ZM19.9966 50.28H23.0366C26.5299 50.28 28.8899 49.6533 30.1166 48.4C31.3699 47.12 31.9966 44.76 31.9966 41.32V32.12C31.9966 28.6267 31.3566 26.2667 30.0766 25.04C28.8232 23.7867 26.4766 23.16 23.0366 23.16H19.9966C16.4766 23.16 13.5166 23.6133 11.1166 24.52C8.71656 25.4 7.51656 26.7867 7.51656 28.68V44.76C7.51656 46.6267 8.71656 48.0133 11.1166 48.92C13.5166 49.8267 16.4766 50.28 19.9966 50.28ZM64.1728 73C60.3061 73 57.4128 72.0267 55.4928 70.08C53.5995 68.16 52.6528 65.2667 52.6528 61.4C52.6528 59.16 53.7728 58.04 56.0128 58.04C58.2528 58.04 59.3728 59.16 59.3728 61.4C59.3728 63.4 59.6661 64.7067 60.2528 65.32C60.8661 65.96 62.1728 66.28 64.1728 66.28H79.6928C81.6661 66.28 82.9595 65.96 83.5728 65.32C84.1861 64.7067 84.4928 63.4 84.4928 61.4V51.24C82.8928 53.64 81.0261 55.2 78.8928 55.92C76.7861 56.64 74.4928 57 72.0128 57H68.0928C62.8128 57 58.9195 55.7467 56.4128 53.24C53.9061 50.7333 52.6528 46.8667 52.6528 41.64V19.8C52.6528 17.56 53.7728 16.44 56.0128 16.44C58.2528 16.44 59.3728 17.56 59.3728 19.8V41.64C59.3728 45 59.9728 47.28 61.1728 48.48C62.3995 49.68 64.7061 50.28 68.0928 50.28H72.0128C76.3861 50.28 79.5595 49.5733 81.5328 48.16C83.5061 46.72 84.4928 44.5467 84.4928 41.64V19.8C84.4928 17.56 85.6128 16.44 87.8528 16.44C90.0928 16.44 91.2128 17.56 91.2128 19.8V61.4C91.2128 65.2667 90.2528 68.16 88.3328 70.08C86.4128 72.0267 83.5328 73 79.6928 73H64.1728ZM124.948 57C119.668 57 115.774 55.7467 113.268 53.24C110.761 50.7333 109.508 46.8667 109.508 41.64V23.16H105.588C103.348 23.16 102.228 22.04 102.228 19.8C102.228 17.56 103.348 16.44 105.588 16.44H109.508V10.6C109.508 8.36 110.628 7.24 112.868 7.24C115.108 7.24 116.228 8.36 116.228 10.6V16.44H125.428C127.668 16.44 128.788 17.56 128.788 19.8C128.788 22.04 127.668 23.16 125.428 23.16H116.228V41.64C116.228 45.0267 116.841 47.32 118.068 48.52C119.294 49.6933 121.588 50.28 124.948 50.28C125.988 50.28 126.801 50.5467 127.388 51.08C128.001 51.6133 128.308 52.4667 128.308 53.64C128.308 55.88 127.188 57 124.948 57ZM142.94 39.48V41.4C142.94 44.84 143.567 47.1867 144.82 48.44C146.074 49.6667 148.434 50.28 151.9 50.28H158.46C161.18 50.28 163.194 50.0267 164.5 49.52C165.807 49.0133 166.674 48.12 167.1 46.84C167.394 45.8267 167.794 45.0533 168.3 44.52C168.834 43.9867 169.634 43.72 170.7 43.72C171.82 43.72 172.674 44.0133 173.26 44.6C173.847 45.1867 174.034 46.04 173.82 47.16C173.234 50.4667 171.66 52.9333 169.1 54.56C166.54 56.1867 162.994 57 158.46 57H151.9C146.594 57 142.647 55.72 140.06 53.16C137.5 50.6 136.22 46.68 136.22 41.4V32.12C136.22 26.7067 137.5 22.7333 140.06 20.2C142.647 17.64 146.594 16.3867 151.9 16.44H158.46C163.794 16.44 167.74 17.72 170.3 20.28C172.86 22.8133 174.14 26.76 174.14 32.12V36.12C174.14 38.36 173.02 39.48 170.78 39.48H142.94ZM151.9 23.16C148.434 23.1067 146.074 23.7067 144.82 24.96C143.567 26.2133 142.94 28.6 142.94 32.12V32.76H167.42V32.12C167.42 28.6267 166.794 26.2667 165.54 25.04C164.314 23.7867 161.954 23.16 158.46 23.16H151.9Z" fill="black"/>
</svg>
