<svg width="32" height="33" viewBox="0 0 32 33" fill="none" xmlns="http://www.w3.org/2000/svg">
<g clip-path="url(#clip0_938_2)">
<path d="M32 0.847076H0V32.8471H32V0.847076Z" fill="white"/>
<path d="M22.2493 5.49513L22.3653 5.52413C22.8486 5.81413 23.2643 6.1428 23.6123 6.51013C23.9796 6.85813 24.3083 7.23513 24.5983 7.64113C24.9076 8.0278 25.1493 8.45313 25.3233 8.91713C26.0579 10.6958 25.4199 12.6871 23.4093 14.8911C22.5586 15.8191 21.6016 16.6118 20.5383 17.2691C20.8089 17.4625 21.0603 17.6075 21.2923 17.7041C21.5436 17.7815 21.8916 17.9458 22.3363 18.1971C22.7809 18.4291 23.0709 18.8835 23.2063 19.5601C23.3416 20.2175 23.3029 20.9618 23.0903 21.7931C22.8969 22.6245 22.5296 23.4848 21.9883 24.3741C21.4663 25.2441 20.7799 26.0271 19.9293 26.7231C17.9959 28.3278 15.7533 29.0045 13.2013 28.7531C12.8339 28.7531 12.6019 28.7241 12.5053 28.6661C12.4086 28.6081 12.3313 28.5598 12.2733 28.5211C12.2153 28.4825 12.0896 28.4535 11.8963 28.4341C11.4129 28.8208 10.8619 29.0625 10.2433 29.1591C9.62459 29.2558 9.03492 29.2075 8.47425 29.0141C7.93292 28.8208 7.46892 28.4921 7.08225 28.0281C6.71492 27.5641 6.53125 26.9551 6.53125 26.2011C6.58925 25.6985 6.68592 25.3021 6.82125 25.0121C6.76325 24.8381 6.73425 24.6255 6.73425 24.3741C7.39159 20.8748 8.01025 18.1971 8.59026 16.3411C9.76959 12.6485 11.0456 9.86446 12.4183 7.98913C13.5396 6.40379 15.0959 5.37913 17.0873 4.91513C19.0013 4.47046 20.7219 4.6638 22.2493 5.49513ZM13.2303 25.7371C13.4623 25.6791 13.6556 25.6695 13.8103 25.7081C13.9843 25.7275 14.1873 25.7178 14.4193 25.6791C14.9799 25.6211 15.7339 25.2731 16.6813 24.6351C17.2806 24.0358 17.5996 23.4461 17.6383 22.8661C17.6769 22.2861 17.5899 21.9188 17.3773 21.7641C17.1646 21.5901 16.8746 21.5031 16.5073 21.5031C16.1593 21.5031 15.7629 21.5611 15.3183 21.6771C14.8929 21.7738 14.4773 21.8318 14.0713 21.8511V21.9091C13.9746 22.2958 13.8779 22.6341 13.7813 22.9241C13.6846 23.2141 13.5976 23.4945 13.5203 23.7651C13.3463 24.4031 13.2109 25.0605 13.1143 25.7371H13.2303ZM18.6243 10.6571C18.0443 10.5798 17.4159 11.0341 16.7393 12.0201C16.3139 12.6388 15.9853 13.5765 15.7533 14.8331C16.1593 14.6591 16.5556 14.5141 16.9423 14.3981C17.3483 14.2628 17.7253 14.1178 18.0733 13.9631C18.9239 13.5958 19.5329 13.1511 19.9003 12.6291C20.3256 12.1265 20.4609 11.7011 20.3063 11.3531C20.0743 11.0438 19.6973 10.7635 19.1753 10.5121C19.0206 10.6475 18.8369 10.6958 18.6243 10.6571ZM18.1893 10.5411H18.2763H18.1893Z" fill="#131921"/>
</g>
<defs>
<clipPath id="clip0_938_2">
<rect y="0.847076" width="32" height="32" rx="16" fill="white"/>
</clipPath>
</defs>
</svg>
