<?xml version="1.0" standalone="no"?>
<!DOCTYPE svg PUBLIC "-//W3C//DTD SVG 20010904//EN"
 "http://www.w3.org/TR/2001/REC-SVG-20010904/DTD/svg10.dtd">
<svg version="1.0" xmlns="http://www.w3.org/2000/svg"
 width="48.000000pt" height="48.000000pt" viewBox="0 0 48.000000 48.000000"
 preserveAspectRatio="xMidYMid meet">

<g transform="translate(0.000000,48.000000) scale(0.100000,-0.100000)"
fill="#000000" stroke="none">
<path d="M238 417 c-33 -27 -60 -86 -87 -191 -29 -111 -28 -144 5 -152 14 -4
30 -2 36 4 6 6 26 8 44 5 42 -7 68 13 95 72 37 80 19 122 -51 112 l-39 -5 19
47 c10 25 24 58 30 73 10 22 10 30 0 43 -16 19 -20 19 -52 -8z m22 -231 c0
-13 -39 -67 -40 -55 0 3 5 20 11 38 11 32 29 42 29 17z"/>
</g>
</svg>
